<svg xmlns="http://www.w3.org/2000/svg" viewBox="0 0 315.64 65.58"><title>Asset 2</title><g xmlns="http://www.w3.org/2000/svg" id="Layer_2" data-name="Layer 2"><g id="Layer_1-2" data-name="Layer 1"><path d="M7.32,62.59V16.14a4.32,4.32,0,0,1,4.33-4.33,4.39,4.39,0,0,1,4.41,4.33V43.38L32.2,27.24a4.42,4.42,0,0,1,6.14,0,4.28,4.28,0,0,1,0,6.14L26.53,45.19,38.66,59.76A4.37,4.37,0,0,1,38,65.9,4.24,4.24,0,0,1,32,65.35l-11.57-14-4.33,4.33v6.93a4.39,4.39,0,0,1-4.41,4.33A4.32,4.32,0,0,1,7.32,62.59Z" transform="translate(-7.32 -1.34)" style="fill: #654ad2;"/><path d="M54.09,17.71A4.25,4.25,0,0,1,49.84,22a4.3,4.3,0,0,1-4.25-4.33V16.06a4.23,4.23,0,0,1,4.25-4.25,4.19,4.19,0,0,1,4.25,4.25Zm0,14.25V62.67a4.19,4.19,0,0,1-4.25,4.25,4.23,4.23,0,0,1-4.25-4.25V32a4.2,4.2,0,0,1,4.25-4.33A4.16,4.16,0,0,1,54.09,32Z" transform="translate(-7.32 -1.34)" style="fill: #654ad2;"/><path d="M94.56,43.93V62.75a4.13,4.13,0,0,1-4.09,4.17,4.25,4.25,0,0,1-4.17-4.17V43.93a8.08,8.08,0,0,0-8.19-8,7.86,7.86,0,0,0-7.87,8V62.75a1.56,1.56,0,0,1-.16.79,4.31,4.31,0,0,1-4.17,3.39,4.15,4.15,0,0,1-4.17-4.17v-31a4.15,4.15,0,0,1,4.17-4.17A4.26,4.26,0,0,1,69.76,30a15.72,15.72,0,0,1,8.35-2.44A16.48,16.48,0,0,1,94.56,43.93Z" transform="translate(-7.32 -1.34)" style="fill: #654ad2;"/><path d="M139.75,62.67a4.28,4.28,0,0,1-4.25,4.25,4.24,4.24,0,0,1-4.17-3.39,19.21,19.21,0,0,1-10.71,3.39c-10.63,0-19.13-9-19.13-19.6,0-10.79,8.5-19.76,19.13-19.76a18.63,18.63,0,0,1,10.55,3.31V16.06a4.29,4.29,0,0,1,8.58,0V62.67ZM120.62,36.14a10.2,10.2,0,0,0-7.4,3.23,11.42,11.42,0,0,0,0,15.75,10.19,10.19,0,0,0,7.4,3.23,10.06,10.06,0,0,0,7.4-3.23,11.42,11.42,0,0,0,0-15.75A10.06,10.06,0,0,0,120.62,36.14Z" transform="translate(-7.32 -1.34)" style="fill: #654ad2;"/><path d="M183.05,43.85v18.9a4.2,4.2,0,0,1-4.17,4.17,4.32,4.32,0,0,1-4.25-4.17V43.85a8,8,0,0,0-16.06.24V62.75c0,.16-.08.39-.08.55v.24c-.08.16-.08.31-.24.47v.39a4.59,4.59,0,0,1-3.94,2.52c-.32,0-.55-.08-.79-.08a4.29,4.29,0,0,1-3.39-4.09V31.81a4.17,4.17,0,0,1,4.17-4.25,4,4,0,0,1,3.78,2.36,16.57,16.57,0,0,1,8.42-2.36A16.34,16.34,0,0,1,178.88,33a16.22,16.22,0,0,1,12.36-5.43,16.45,16.45,0,0,1,16.38,16.53V62.75a4.2,4.2,0,0,1-4.17,4.17,4.27,4.27,0,0,1-4.25-4.17V44.09a8.07,8.07,0,0,0-8-8.11A8.17,8.17,0,0,0,183.05,43.85Z" transform="translate(-7.32 -1.34)" style="fill: #654ad2;"/><path d="M252.42,47.32V62.75a4.2,4.2,0,0,1-4.17,4.17,4.29,4.29,0,0,1-4.09-3.39,17.88,17.88,0,0,1-10.47,3.39,18.29,18.29,0,0,1-13.39-5.75,20.16,20.16,0,0,1-5.35-13.86,19.87,19.87,0,0,1,5.35-13.86,18.13,18.13,0,0,1,13.39-5.91A18,18,0,0,1,244.15,31a4.28,4.28,0,0,1,4.09-3.46,4.22,4.22,0,0,1,4.17,4.25Zm-8.35,0A11.58,11.58,0,0,0,241,39.21,9.73,9.73,0,0,0,233.68,36a9.49,9.49,0,0,0-7.32,3.23,11.53,11.53,0,0,0-3,8.11,11.81,11.81,0,0,0,3,8.11,9.92,9.92,0,0,0,7.32,3.07A10.18,10.18,0,0,0,241,55.43,11.86,11.86,0,0,0,244.07,47.32Z" transform="translate(-7.32 -1.34)" style="fill: #654ad2;"/><path d="M279.66,31.89a4.44,4.44,0,0,1-4.41,4.33h-2v22a4.33,4.33,0,0,1,4.33,4.41,4.27,4.27,0,0,1-4.33,4.33,8.77,8.77,0,0,1-8.74-8.74v-22h-2.28a4.32,4.32,0,0,1-4.33-4.33,4.27,4.27,0,0,1,4.33-4.33h2.28V16.14a4.34,4.34,0,0,1,4.41-4.33,4.27,4.27,0,0,1,4.33,4.33V27.55h2A4.39,4.39,0,0,1,279.66,31.89Z" transform="translate(-7.32 -1.34)" style="fill: #654ad2;"/><path d="M284.77,47.24c.08-10.71,8.42-19.68,19.21-19.68,10.24,0,18.34,7.64,19,18.27v.39a2.19,2.19,0,0,1-.08.71c-.24,1.89-1.89,3.15-4.09,3.15h-25a10.32,10.32,0,0,0,2.68,5.2A12.18,12.18,0,0,0,304,58.81a12.87,12.87,0,0,0,8.19-2c1.65-1.73,4.88-1.5,5.91-.24a3.6,3.6,0,0,1,0,5.12A19.9,19.9,0,0,1,304,66.92,19.54,19.54,0,0,1,284.77,47.24Zm8.58-3.86h22.28c-.79-3.15-4.8-7.79-11.65-8.35A11,11,0,0,0,293.35,43.38Z" transform="translate(-7.32 -1.34)" style="fill: #654ad2;"/></g><g id="Layer_2-2" data-name="Layer 2"><path d="M43.88,18.51C41.69,14.22,40.46,9.42,42.15,6c1.9-3.86,6.1-5.67,9.38-4.06,2.62,1.29,3.51,4.84,2,7.93C55,6.77,58.4,5.32,61,6.61a6.32,6.32,0,0,1,3.36,5,8.66,8.66,0,0,1-.87,4.87c-2.38,4.82-10.42,6.71-16.64,6.8A33.92,33.92,0,0,1,43.88,18.51Z" transform="translate(-7.32 -1.34)" style="fill:#fd5d65"/><path d="M45.54,19.33c-.86-3.62-1-7.88.73-11.31s4.29-5.56,6.27-5.41a4.54,4.54,0,0,0-1-.68C48.26.31,44.06,2.13,42.15,6c-1.69,3.43-.47,8.24,1.72,12.52a34,34,0,0,0,3,4.82A22.56,22.56,0,0,1,45.54,19.33Z" transform="translate(-7.32 -1.34)" style="fill:#e54e5c"/></g></g></svg>